<svg width="8" height="8" viewBox="0 0 8 8" fill="none" xmlns="http://www.w3.org/2000/svg">
<g clip-path="url(#clip0)">
<path d="M4.00003 0C1.79436 0 6.10352e-05 1.79431 6.10352e-05 4C6.10352e-05 6.20569 1.79436 8 4.00003 8C6.2057 8 8 6.20569 8 4C8 1.79431 6.2057 0 4.00003 0Z" fill="#051956"/>
<path d="M5.74986 3.66663C5.93419 3.66667 6.08313 3.81561 6.08317 3.99994C6.08317 4.09187 6.04593 4.17529 5.98555 4.23567C5.92522 4.29601 5.84179 4.33325 5.74986 4.33325L4.33329 4.33321L4.33333 5.74979C4.33333 5.84172 4.29609 5.92515 4.23575 5.98548C4.17537 6.04586 4.09195 6.08311 4.00002 6.08311C3.81569 6.08306 3.66676 5.93412 3.66671 5.74979L3.66676 4.33321L2.25018 4.33325C2.06585 4.33321 1.91691 4.18427 1.91687 3.99994C1.91691 3.81561 2.06585 3.66667 2.25018 3.66663L3.66676 3.66667L3.66671 2.25008C3.66676 2.06575 3.81569 1.91681 4.00002 1.91677C4.18435 1.91681 4.33329 2.06575 4.33333 2.25008L4.33329 3.66667L5.74986 3.66663Z" fill="#FAFAFA"/>
</g>
<defs>
<clipPath id="clip0">
<rect width="7.99994" height="8" fill="white"/>
</clipPath>
</defs>
</svg>
