<svg width="36" height="45" viewBox="0 0 36 45" fill="none" xmlns="http://www.w3.org/2000/svg">
<g clip-path="url(#clip0)">
<path d="M30.5677 10.1738C30.4082 9.937 30.2061 9.73203 29.9715 9.56933L29.9409 9.55627C29.8787 9.51566 29.8136 9.47974 29.7461 9.44878L29.6037 9.38778C29.5308 9.36066 29.4607 9.32661 29.3943 9.28609L29.3637 9.27306C29.2765 9.22369 29.0656 9.09728 28.7473 8.91283L28.7109 8.88525C28.6135 8.83153 28.2398 8.63543 27.6044 8.29119L27.5841 8.28246C27.2875 8.1314 27.0621 8.01092 26.8585 7.92376L26.8485 7.91943C26.4028 7.72865 25.9459 7.56524 25.4804 7.43011C25.2681 7.3634 25.0559 7.29662 24.8392 7.23998L24.8189 7.23125C24.0993 7.05578 23.6253 6.92516 23.3985 6.86413C22.9805 6.74208 22.5312 6.79082 22.149 6.99966C21.7669 7.2085 21.4832 7.56039 21.3603 7.97812C21.2373 8.39585 21.285 8.84531 21.493 9.2279C21.7009 9.61049 22.0522 9.89496 22.4696 10.0189C22.7269 10.0929 23.2459 10.2308 23.9961 10.4194C24.1677 10.4688 24.3494 10.5224 24.5209 10.5718L24.5311 10.5762C24.7826 10.6517 25.0297 10.7414 25.2711 10.8448C21.2974 11.6971 17.5546 13.3975 14.2986 15.8296C10.9724 18.1991 7.79978 21.8224 4.78084 26.6996C4.5528 27.071 4.48137 27.5176 4.58221 27.9415C4.68305 28.3654 4.94793 28.7321 5.31874 28.9609C5.68956 29.1898 6.13601 29.2623 6.56017 29.1624C6.98432 29.0625 7.35154 28.7984 7.58126 28.4281C10.3745 23.928 13.2531 20.6163 16.2171 18.4933L16.2461 18.4816C19.0552 16.3803 22.273 14.8905 25.6927 14.1079C24.705 15.4877 23.8065 16.9291 23.0025 18.4234C22.9028 18.6149 22.8417 18.8243 22.823 19.0394C22.8042 19.2545 22.828 19.4713 22.893 19.6772C22.9581 19.8831 23.0631 20.0742 23.2021 20.2395C23.3411 20.4049 23.5113 20.5411 23.7029 20.6406C23.8946 20.7401 24.1041 20.8008 24.3192 20.8192C24.5344 20.8377 24.7511 20.8136 24.9569 20.7482C25.1628 20.6828 25.3537 20.5775 25.5188 20.4383C25.6839 20.2991 25.8199 20.1287 25.9191 19.9368C26.9542 18.059 28.1201 16.2564 29.4083 14.5423L29.4446 14.4856C29.7571 14.0524 30.0952 13.6382 30.4571 13.2453L30.4935 13.1885C30.5908 13.0737 30.6562 13.0054 30.6984 12.9632C30.9427 12.8149 31.1426 12.6035 31.2769 12.3513C31.4113 12.099 31.4751 11.8152 31.4618 11.5297C31.4484 11.2441 31.3583 10.9675 31.201 10.7289C31.0436 10.4903 30.8249 10.2985 30.5677 10.1738H30.5677Z" fill="#F44336"/>
<path d="M25.481 7.42605L25.478 7.42505L25.482 7.42605H25.481Z" fill="#F44336"/>
</g>
<defs>
<clipPath id="clip0">
<rect width="36" height="45" fill="white"/>
</clipPath>
</defs>
</svg>
