<svg width="258" height="258" viewBox="0 0 258 258" fill="none" xmlns="http://www.w3.org/2000/svg">
<path fill-rule="evenodd" clip-rule="evenodd" d="M101 122C99 114 108 110 113 107C116 105 117 102 115 99C112 90 107 83 104 74C103 73 102 72 100 72C86 70 75 81 72 94C64 134 124 194 164 186C177 183 188 173 187 158C186 156 185 155 184 154C176 151 168 146 160 143C156 142 154 142 152 145C148 151 144 159 137 158C124 155 103 134 101 122Z" fill="#2196F3"/>
<path d="M129 0C201 0 258 58 258 129C258 201 201 258 129 258C58 258 0 201 0 129C0 58 58 0 129 0ZM129 17C67 17 17 67 17 129C17 191 67 241 129 241C191 241 241 191 241 129C241 67 191 17 129 17Z" fill="#2196F3"/>
</svg>
