<svg width="97" height="96" viewBox="0 0 97 96" fill="none" xmlns="http://www.w3.org/2000/svg">
<path d="M48.0149 5.84773e-05C39.5845 -0.0131073 31.2997 2.19707 23.9961 6.40768C16.6925 10.6183 10.6284 16.6804 6.41545 23.9826C2.20247 31.2849 -0.0103957 39.5689 3.67173e-05 47.9993C0.0104692 56.4297 2.24383 64.7083 6.47487 72.0001L0.224868 90.7301C-0.0101706 91.4348 -0.04428 92.1912 0.126363 92.9142C0.297005 93.6373 0.665656 94.2986 1.191 94.8239C1.71634 95.3493 2.3776 95.7179 3.10069 95.8886C3.82377 96.0592 4.58008 96.0251 5.28487 95.7901L24.0149 89.5401C30.3906 93.2314 37.5304 95.4056 44.8814 95.8943C52.2324 96.383 59.5972 95.173 66.4054 92.3582C73.2136 89.5433 79.2826 85.199 84.1421 79.6618C89.0017 74.1246 92.5214 67.5431 94.4288 60.4271C96.3361 53.3111 96.5799 45.8515 95.1412 38.6262C93.7024 31.4008 90.6198 24.6036 86.1321 18.761C81.6444 12.9184 75.8721 8.18719 69.2621 4.93384C62.6522 1.68049 55.3821 -0.00769129 48.0149 5.84773e-05V5.84773e-05ZM48.0149 88.0001C40.4521 87.9952 33.0469 85.8378 26.6649 81.7801C26.0246 81.3749 25.2825 81.1599 24.5249 81.1601C24.0962 81.1607 23.6706 81.2316 23.2649 81.3701L10.3349 85.6801L14.6449 72.7501C14.8325 72.1883 14.893 71.5919 14.8221 71.004C14.7512 70.416 14.5506 69.8511 14.2349 69.3501C9.49792 61.8451 7.39138 52.9779 8.24684 44.1444C9.1023 35.3109 12.8712 27.0127 18.9602 20.5562C25.0492 14.0996 33.1126 9.85143 41.8808 8.48033C50.6491 7.10923 59.6244 8.69309 67.3938 12.9826C75.1632 17.2721 81.2854 24.0236 84.7967 32.1743C88.308 40.3249 89.009 49.4119 86.7892 58.0047C84.5695 66.5975 79.5551 74.208 72.5355 79.6383C65.5159 85.0686 56.8897 88.0102 48.0149 88.0001V88.0001Z" fill="#2196F3"/>
<path d="M48.0149 52C50.224 52 52.0149 50.2091 52.0149 48C52.0149 45.7909 50.224 44 48.0149 44C45.8058 44 44.0149 45.7909 44.0149 48C44.0149 50.2091 45.8058 52 48.0149 52Z" fill="#2196F3"/>
<path d="M32.0149 52C34.224 52 36.0149 50.2091 36.0149 48C36.0149 45.7909 34.224 44 32.0149 44C29.8058 44 28.0149 45.7909 28.0149 48C28.0149 50.2091 29.8058 52 32.0149 52Z" fill="#2196F3"/>
<path d="M64.0149 52C66.224 52 68.0149 50.2091 68.0149 48C68.0149 45.7909 66.224 44 64.0149 44C61.8058 44 60.0149 45.7909 60.0149 48C60.0149 50.2091 61.8058 52 64.0149 52Z" fill="#2196F3"/>
</svg>
