<svg width="5" height="5" viewBox="0 0 5 5" fill="none" xmlns="http://www.w3.org/2000/svg">
<path d="M2.5 0C1.12144 0 0 1.12144 0 2.5C0 3.87856 1.12144 5 2.5 5C3.87856 5 5 3.87856 5 2.5C5 1.12144 3.87856 0 2.5 0Z" fill="#2196F3"/>
<path d="M3.76709 1.97018L2.41291 3.32433C2.37228 3.36495 2.31895 3.3854 2.26562 3.3854C2.2123 3.3854 2.15897 3.36495 2.11834 3.32433L1.44127 2.64725C1.35979 2.56581 1.35979 2.43413 1.44127 2.35268C1.52271 2.2712 1.65436 2.2712 1.73584 2.35268L2.26562 2.88247L3.47252 1.67561C3.55396 1.59413 3.68561 1.59413 3.76709 1.67561C3.84853 1.75706 3.84853 1.8887 3.76709 1.97018Z" fill="#FAFAFA"/>
</svg>
