<svg width="54" height="56" viewBox="0 0 54 56" fill="none" xmlns="http://www.w3.org/2000/svg">
<path d="M9.92093 12.0264C9.92093 11.6286 10.079 11.247 10.3603 10.9657C10.6416 10.6844 11.0231 10.5264 11.4209 10.5264H36.36C36.7578 10.5264 37.1394 10.6844 37.4207 10.9657C37.702 11.247 37.86 11.6286 37.86 12.0264C37.86 12.4242 37.702 12.8057 37.4207 13.087C37.1394 13.3683 36.7578 13.5264 36.36 13.5264H11.4209C11.0231 13.5264 10.6416 13.3683 10.3603 13.087C10.079 12.8057 9.92093 12.4242 9.92093 12.0264ZM11.4209 22.3223H36.36C36.7578 22.3223 37.1394 22.1642 37.4207 21.8829C37.702 21.6016 37.86 21.2201 37.86 20.8223C37.86 20.4245 37.702 20.0429 37.4207 19.7616C37.1394 19.4803 36.7578 19.3223 36.36 19.3223H11.4209C11.0231 19.3223 10.6416 19.4803 10.3603 19.7616C10.079 20.0429 9.92093 20.4245 9.92093 20.8223C9.92093 21.2201 10.079 21.6016 10.3603 21.8829C10.6416 22.1642 11.0231 22.3223 11.4209 22.3223ZM11.4209 31.1172H36.36C36.7578 31.1172 37.1394 30.9591 37.4207 30.6778C37.702 30.3965 37.86 30.015 37.86 29.6172C37.86 29.2193 37.702 28.8378 37.4207 28.5565C37.1394 28.2752 36.7578 28.1172 36.36 28.1172H11.4209C11.0231 28.1172 10.6416 28.2752 10.3603 28.5565C10.079 28.8378 9.92093 29.2193 9.92093 29.6172C9.92093 30.015 10.079 30.3965 10.3603 30.6778C10.6416 30.9591 11.0231 31.1172 11.4209 31.1172ZM29.3721 36.9121H11.4209C11.0231 36.9121 10.6416 37.0701 10.3603 37.3514C10.079 37.6327 9.92093 38.0143 9.92093 38.4121C9.92093 38.8099 10.079 39.1914 10.3603 39.4727C10.6416 39.754 11.0231 39.9121 11.4209 39.9121H29.3721C29.77 39.9121 30.1515 39.754 30.4328 39.4727C30.7141 39.1914 30.8721 38.8099 30.8721 38.4121C30.8721 38.0143 30.7141 37.6327 30.4328 37.3514C30.1515 37.0701 29.77 36.9121 29.3721 36.9121ZM53.6094 44.5221C53.6112 46.9402 52.8119 49.2907 51.3363 51.2064C49.8608 53.1221 47.7921 54.4949 45.4537 55.1104C43.1152 55.7259 40.6388 55.5493 38.4113 54.6083C36.1838 53.6673 34.3309 52.0148 33.142 49.9092H8.89062C6.6371 49.9065 4.47663 49.0101 2.88314 47.4167C1.28965 45.8232 0.393272 43.6627 0.390625 41.4092V9.02917C0.393272 6.77565 1.28965 4.61518 2.88314 3.02169C4.47663 1.4282 6.6371 0.531821 8.89062 0.529175H38.8906C41.1442 0.531821 43.3046 1.4282 44.8981 3.02169C46.4916 4.61518 47.388 6.77565 47.3906 9.02917V34.6642C49.2502 35.5552 50.8205 36.9532 51.9206 38.6972C53.0208 40.4412 53.6062 42.4604 53.6094 44.5225V44.5221ZM31.9839 46.9092C31.5807 45.1646 31.6141 43.3475 32.0813 41.6189C32.5484 39.8903 33.4349 38.3037 34.662 36.9997C35.8891 35.6958 37.419 34.7147 39.116 34.1435C40.813 33.5723 42.6248 33.4287 44.3906 33.7253V9.02927C44.3888 7.57114 43.8088 6.17324 42.7777 5.14218C41.7467 4.11111 40.3488 3.53107 38.8906 3.52927H8.89062C7.43247 3.53102 6.03454 4.11105 5.00347 5.14212C3.97239 6.17319 3.39237 7.57112 3.39062 9.02927V41.4093C3.39237 42.8674 3.97239 44.2654 5.00347 45.2964C6.03454 46.3275 7.43247 46.9075 8.89062 46.9093L31.9839 46.9092ZM50.6094 44.5225C50.6093 42.9505 50.1431 41.4139 49.2698 40.107C48.3964 38.8 47.155 37.7814 45.7027 37.1799C44.2504 36.5784 42.6524 36.4211 41.1107 36.7279C39.5689 37.0346 38.1528 37.7917 37.0414 38.9032C35.9299 40.0148 35.173 41.431 34.8664 42.9728C34.5599 44.5145 34.7174 46.1126 35.319 47.5648C35.9206 49.017 36.9394 50.2583 38.2465 51.1315C39.5535 52.0047 41.0902 52.4708 42.6621 52.4707C44.7693 52.4682 46.7894 51.63 48.2793 50.1399C49.7692 48.6498 50.6072 46.6296 50.6094 44.5225V44.5225ZM46.4814 43.0225H44.1621V40.1325C44.1621 39.7346 44.0041 39.3531 43.7228 39.0718C43.4415 38.7905 43.0599 38.6325 42.6621 38.6325C42.2643 38.6325 41.8828 38.7905 41.6015 39.0718C41.3202 39.3531 41.1621 39.7346 41.1621 40.1325V44.5225C41.1621 44.9203 41.3202 45.3018 41.6015 45.5831C41.8828 45.8644 42.2643 46.0225 42.6621 46.0225H46.4814C46.8792 46.0225 47.2608 45.8644 47.5421 45.5831C47.8234 45.3018 47.9814 44.9203 47.9814 44.5225C47.9814 44.1246 47.8234 43.7431 47.5421 43.4618C47.2608 43.1805 46.8792 43.0225 46.4814 43.0225V43.0225Z" fill="white"/>
</svg>
