<svg width="48" height="58" viewBox="0 0 48 58" fill="none" xmlns="http://www.w3.org/2000/svg">
<path d="M41.38 21.82V17.38C41.38 12.7705 39.5489 8.34987 36.2895 5.09048C33.0301 1.8311 28.6095 0 24 0C19.3905 0 14.9699 1.8311 11.7105 5.09048C8.4511 8.34987 6.62 12.7705 6.62 17.38V21.82C4.86707 22.2867 3.31714 23.3188 2.2106 24.7562C1.10407 26.1936 0.502777 27.956 0.5 29.77V49.77C0.502646 51.9519 1.37058 54.0437 2.91343 55.5866C4.45629 57.1294 6.54808 57.9974 8.73 58H39.27C41.4519 57.9974 43.5437 57.1294 45.0866 55.5866C46.6294 54.0437 47.4974 51.9519 47.5 49.77V29.77C47.4972 27.956 46.8959 26.1936 45.7894 24.7562C44.6829 23.3188 43.1329 22.2867 41.38 21.82V21.82ZM28.48 41C28.48 42.1935 28.0059 43.3381 27.162 44.182C26.3181 45.0259 25.1735 45.5 23.98 45.5C22.7865 45.5 21.6419 45.0259 20.798 44.182C19.9541 43.3381 19.48 42.1935 19.48 41V34.6C19.48 33.4065 19.9541 32.2619 20.798 31.418C21.6419 30.5741 22.7865 30.1 23.98 30.1C25.1735 30.1 26.3181 30.5741 27.162 31.418C28.0059 32.2619 28.48 33.4065 28.48 34.6V41ZM8.62 17.38C8.62 13.301 10.2404 9.38901 13.1247 6.5047C16.009 3.62039 19.921 2 24 2C28.079 2 31.991 3.62039 34.8753 6.5047C37.7596 9.38901 39.38 13.301 39.38 17.38V21.55H8.62V17.38Z" fill="#2196F3"/>
<path d="M24 32.08C23.344 32.08 22.7147 32.3399 22.2499 32.8029C21.7851 33.2658 21.5226 33.894 21.52 34.55V41C21.52 41.6631 21.7834 42.299 22.2522 42.7678C22.7211 43.2366 23.3569 43.5 24.02 43.5C24.683 43.5 25.3189 43.2366 25.7878 42.7678C26.2566 42.299 26.52 41.6631 26.52 41V34.6C26.5254 34.2676 26.4639 33.9375 26.3392 33.6293C26.2145 33.3211 26.029 33.0412 25.7939 32.8061C25.5589 32.571 25.2789 32.3856 24.9707 32.2608C24.6625 32.1361 24.3324 32.0746 24 32.08V32.08Z" fill="#2196F3"/>
</svg>
