<svg width="20" height="20" viewBox="0 0 20 20" fill="none" xmlns="http://www.w3.org/2000/svg">
<path d="M19.4556 14.678L16.6645 11.8869C15.6677 10.8901 13.9731 11.2889 13.5744 12.5847C13.2754 13.4819 12.2786 13.9803 11.3815 13.7809C9.38784 13.2825 6.69646 10.6908 6.19805 8.59746C5.89901 7.70029 6.4971 6.70349 7.39422 6.40448C8.69007 6.00576 9.0888 4.31119 8.09199 3.31438L5.30093 0.523324C4.50348 -0.174441 3.30732 -0.174441 2.60955 0.523324L0.715617 2.41726C-1.17832 4.41087 0.914978 9.69395 5.59997 14.3789C10.285 19.0639 15.568 21.2569 17.5617 19.2633L19.4556 17.3694C20.1534 16.5719 20.1534 15.3757 19.4556 14.678Z" fill="#2196F3"/>
</svg>
