<svg width="5" height="5" viewBox="0 0 5 5" fill="none" xmlns="http://www.w3.org/2000/svg">
<path d="M2.5 0C1.12146 0 0 1.12146 0 2.5C0 3.87854 1.12146 5 2.5 5C3.87854 5 5 3.87854 5 2.5C5 1.12146 3.87854 0 2.5 0ZM3.27229 2.64729L2.23062 3.68896C2.19 3.72958 2.13667 3.75 2.08333 3.75C2.03 3.75 1.97666 3.72958 1.93604 3.68896C1.85458 3.6075 1.85458 3.47583 1.93604 3.39438L2.83042 2.5L1.93604 1.60563C1.85459 1.52417 1.85459 1.3925 1.93604 1.31104C2.0175 1.22959 2.14917 1.22959 2.23062 1.31104L3.27229 2.35271C3.35375 2.43417 3.35375 2.56583 3.27229 2.64729Z" fill="#2196F3"/>
</svg>
