<svg width="40" height="40" viewBox="0 0 40 40" fill="none" xmlns="http://www.w3.org/2000/svg">
<path fill-rule="evenodd" clip-rule="evenodd" d="M12 1V11C12 11.5523 12.4477 12 13 12H27C27.5523 12 28 11.5523 28 11V1C28 0.447715 28.4477 0 29 0H30.7574C31.553 0 32.3161 0.31607 32.8787 0.878679L39.1213 7.12132C39.6839 7.68393 40 8.44699 40 9.24264V37C40 38.6569 38.6569 40 37 40H3C1.34315 40 0 38.6569 0 37V3C0 1.34315 1.34315 0 3 0H11C11.5523 0 12 0.447715 12 1ZM21 0H23C23.5523 0 24 0.447715 24 1V7C24 7.55228 23.5523 8 23 8H21C20.4477 8 20 7.55228 20 7V1C20 0.447715 20.4477 0 21 0ZM13 26C13 29.866 16.134 33 20 33C23.866 33 27 29.866 27 26C27 22.134 23.866 19 20 19C16.134 19 13 22.134 13 26Z" fill="#2196F3"/>
</svg>
