<svg width="394" height="419" viewBox="0 0 394 419" fill="none" xmlns="http://www.w3.org/2000/svg">
  <path d="M49 215.054V418.095H371V211.937L212.226 89.4309L49 215.054ZM301.226 245.295L301.236 245.345C308.688 283.736 285.446 334.938 216.721 362.781C216.585 362.836 216.448 362.886 216.309 362.933C213.528 363.973 210.465 363.973 207.684 362.933C207.561 362.892 207.439 362.847 207.319 362.799C138.57 335.522 115.31 284.161 122.754 245.36C127.995 217.724 147.806 199.86 173.223 199.86C185.923 199.86 198.967 204.343 212.057 213.196C224.986 204.73 238.211 200.279 250.557 200.279C275.821 200.273 295.709 217.944 301.226 245.295Z" fill="white"/>
  <path d="M207.811 227.346C195.979 218.52 184.019 213.854 173.223 213.854C154.567 213.854 140.498 226.93 136.506 247.98C130.162 281.043 151.062 325.22 211.991 349.588C255.981 331.588 296.268 293.304 287.497 248.032C283.286 227.207 269.135 214.273 250.561 214.273C239.853 214.273 227.939 218.813 216.108 227.4C214.9 228.277 213.443 228.744 211.951 228.735C210.458 228.725 209.008 228.238 207.811 227.346Z" fill="white"/>
  <path d="M0 163.895V235.644L208.042 75.044C209.249 74.0986 210.738 73.5854 212.271 73.5865C213.804 73.5876 215.292 74.1029 216.498 75.05L424 235.617V163.885L212.278 0L0 163.895Z" fill="white"/>
  </svg>
