<svg width="5" height="5" viewBox="0 0 5 5" fill="none" xmlns="http://www.w3.org/2000/svg">
<path d="M2.5 0C1.12144 0 0 1.12144 0 2.5C0 3.87856 1.12144 5 2.5 5C3.87856 5 5 3.87856 5 2.5C5 1.12144 3.87856 0 2.5 0Z" fill="#F44336"/>
<path d="M3.42064 3.126C3.50208 3.20748 3.50208 3.33913 3.42064 3.42061C3.38001 3.46124 3.32668 3.48165 3.27332 3.48165C3.21999 3.48165 3.16666 3.46124 3.12603 3.42061L2.5 2.79454L1.87397 3.42061C1.83335 3.46124 1.78002 3.48165 1.72669 3.48165C1.67332 3.48165 1.61999 3.46124 1.57936 3.42061C1.49792 3.33913 1.49792 3.20748 1.57936 3.126L2.20543 2.49997L1.57936 1.87394C1.49792 1.79246 1.49792 1.66081 1.57936 1.57933C1.66084 1.49789 1.79249 1.49789 1.87397 1.57933L2.5 2.2054L3.12603 1.57933C3.20751 1.49789 3.33916 1.49789 3.42064 1.57933C3.50208 1.66081 3.50208 1.79246 3.42064 1.87394L2.79457 2.49997L3.42064 3.126Z" fill="#FAFAFA"/>
</svg>
