<svg width="33" height="34" viewBox="0 0 33 34" fill="none" xmlns="http://www.w3.org/2000/svg">
<g clip-path="url(#clip0)">
<path d="M29.3773 21.2185C29.3773 28.2662 23.8118 34 16.9718 34H12.5804C11.8527 34 11.263 33.3925 11.263 32.6427V32.1902C11.263 31.4404 11.8526 30.8329 12.5804 30.8329H16.9718C22.117 30.8329 26.3034 26.5197 26.3034 21.2185C26.3034 15.9173 22.117 11.6041 16.9718 11.6041H8.86998L14.4497 17.3529C15.049 17.9701 15.049 18.9749 14.4497 19.5921C13.8682 20.1908 12.8561 20.1899 12.2759 19.5921L4.07292 11.1403C3.78263 10.8412 3.62265 10.4436 3.62265 10.0205C3.62265 9.59766 3.78263 9.19976 4.07292 8.90082L12.2764 0.448648C12.8566 -0.14959 13.8695 -0.14959 14.4498 0.448648C15.049 1.06572 15.049 2.07069 14.4498 2.68769L8.87006 8.43692H16.9718C23.8118 8.43692 29.3773 14.1709 29.3773 21.2185Z" fill="#2196F3"/>
</g>
<defs>
<clipPath id="clip0">
<rect width="33" height="34" fill="white"/>
</clipPath>
</defs>
</svg>
